<?xml version="1.0" standalone="no"?>
<!DOCTYPE svg PUBLIC "-//W3C//DTD SVG 20010904//EN"
 "http://www.w3.org/TR/2001/REC-SVG-20010904/DTD/svg10.dtd">
<svg version="1.0" xmlns="http://www.w3.org/2000/svg"
 width="1000.000000pt" height="1000.000000pt" viewBox="0 0 500.000000 500.000000"
 preserveAspectRatio="xMidYMid meet">

<g transform="translate(-250.000000,800.000000) scale(0.200000,-0.200000)"
fill="#000000" stroke="none">
<path d="M970 2790 l0 -490 293 0 292 0 0 95 1 95 -46 2 c-25 1 -103 2 -175 2
l-130 1 -3 393 -2 392 -115 0 -115 0 0 -490z"/>
<path d="M1839 3037 c-102 -43 -172 -109 -216 -202 -25 -54 -28 -70 -28 -170
0 -101 2 -115 28 -168 40 -80 112 -151 194 -190 63 -30 75 -32 173 -31 84 0
117 5 161 23 107 41 224 132 298 231 14 19 28 37 32 40 3 3 39 50 81 105 123
164 179 205 276 205 74 0 120 -19 160 -64 62 -70 69 -205 16 -285 -38 -58 -86
-81 -169 -81 -82 0 -137 25 -215 96 l-57 53 -19 -22 c-54 -61 -85 -109 -81
-122 10 -24 130 -118 183 -142 111 -51 261 -54 361 -8 75 34 148 106 185 184
30 62 32 73 32 176 0 98 -3 116 -26 166 -66 143 -202 229 -364 229 -93 0 -147
-17 -229 -72 -58 -39 -113 -98 -254 -275 -176 -220 -252 -270 -394 -261 -77 5
-125 32 -157 91 -27 47 -36 137 -21 195 14 51 64 110 108 128 39 17 131 18
170 3 42 -16 107 -73 156 -138 l44 -59 51 68 c29 37 52 74 52 82 0 9 -30 48
-66 87 -50 54 -84 80 -142 108 -69 35 -84 38 -171 41 -82 2 -104 -1 -152 -21z"/>
<path d="M3590 3039 c-24 -11 -59 -31 -77 -45 l-33 -25 0 35 0 36 -95 0 -95 0
0 -500 0 -500 100 0 100 0 0 166 0 166 42 -36 c71 -61 168 -80 264 -51 163 48
254 188 254 390 0 192 -88 320 -259 374 -55 18 -150 13 -201 -10z m170 -180
c43 -26 55 -42 80 -97 48 -106 4 -248 -91 -297 -36 -19 -132 -19 -168 0 -134
69 -145 313 -18 390 56 33 146 35 197 4z"/>
</g>
</svg>
