<?xml version="1.0" standalone="no"?>
<!DOCTYPE svg PUBLIC "-//W3C//DTD SVG 20010904//EN"
 "http://www.w3.org/TR/2001/REC-SVG-20010904/DTD/svg10.dtd">
<svg version="1.0" xmlns="http://www.w3.org/2000/svg"
 width="1024.000000pt" height="1024.000000pt" viewBox="0 0 1024.000000 1024.000000"
 preserveAspectRatio="xMidYMid meet">

<g transform="translate(0.000000,1024.000000) scale(0.100000,-0.100000)"
fill="#000000" stroke="none">
<path d="M1997 6714 c-4 -4 -7 -457 -7 -1006 l0 -998 600 0 600 0 0 200 0 200
-365 0 -365 0 0 804 0 803 -228 2 c-125 1 -231 -1 -235 -5z"/>
<path d="M3875 6256 c-235 -54 -435 -208 -540 -416 -66 -131 -80 -197 -80
-375 1 -167 6 -196 52 -315 79 -200 261 -377 465 -451 349 -128 741 -24 1060
279 105 101 195 208 406 487 175 232 243 307 332 364 92 59 152 74 275 69 80
-4 112 -10 157 -30 224 -103 314 -404 192 -648 -106 -212 -371 -271 -623 -140
-81 42 -194 134 -261 212 l-41 47 -66 -87 c-37 -48 -86 -113 -111 -144 l-44
-57 20 -28 c28 -40 127 -132 195 -182 314 -231 718 -261 1009 -75 181 116 309
306 353 523 21 102 16 302 -10 396 -60 218 -216 402 -430 505 -126 61 -212 80
-357 80 -143 0 -225 -18 -341 -73 -175 -83 -317 -211 -512 -462 -319 -411
-414 -516 -546 -606 -184 -125 -395 -151 -562 -70 -73 35 -91 50 -140 114 -91
120 -110 345 -41 496 74 162 209 238 410 229 82 -3 100 -8 170 -43 94 -46 213
-160 313 -298 35 -48 67 -84 71 -80 4 4 55 72 114 151 l108 142 -18 28 c-33
52 -145 181 -201 232 -108 99 -251 181 -378 216 -81 23 -319 28 -400 10z"/>
<path d="M7470 6264 c-104 -20 -225 -81 -294 -149 l-46 -44 0 79 0 80 -200 0
-200 0 0 -1025 0 -1025 210 0 210 0 0 340 0 340 58 -57 c104 -104 227 -153
387 -153 114 0 185 18 305 77 77 38 109 61 176 127 66 66 90 99 128 176 82
167 118 370 97 545 -16 130 -35 198 -88 305 -39 79 -61 109 -132 180 -137 137
-282 198 -481 205 -58 2 -116 1 -130 -1z m174 -380 c50 -18 126 -75 160 -119
43 -56 84 -152 96 -227 21 -123 -13 -271 -86 -370 -158 -217 -504 -206 -628
21 -64 119 -86 236 -67 361 23 147 95 256 206 311 99 49 220 57 319 23z"/>
</g>
</svg>
