<svg version="1.0" xmlns="http://www.w3.org/2000/svg"
 width="500.000000pt" height="500.000000pt" viewBox="0 0 500.000000 500.000000"
 preserveAspectRatio="xMidYMid meet">

<g transform="translate(-70.000000,570.000000) scale(0.130000,-0.130000)"
fill="#2e7d32" stroke="none">
<path d="M2300 4330 c-913 -106 -1602 -840 -1636 -1745 -7 -167 4 -315 31
-452 97 -474 370 -884 767 -1151 102 -69 226 -138 298 -166 25 -10 59 -24 75
-31 82 -37 248 -84 375 -107 102 -18 481 -18 575 1 278 54 527 153 735 292
103 69 281 220 332 280 20 24 48 58 62 74 73 83 181 249 235 360 125 259 176
464 188 750 11 278 -39 554 -143 791 -26 59 -82 85 -119 54 -22 -19 -18 -58
15 -151 72 -199 120 -450 120 -629 0 -61 -23 -264 -35 -320 -21 -89 -30 -123
-50 -185 -92 -282 -217 -487 -420 -691 -295 -297 -643 -459 -1083 -505 -88 -9
-141 -9 -235 0 -333 34 -563 114 -832 291 -135 89 -213 157 -322 280 -241 272
-386 589 -428 935 -24 193 -19 281 24 525 52 292 222 615 446 849 257 268 554
424 960 502 93 18 469 18 545 0 156 -36 186 -44 238 -61 278 -89 544 -257 708
-447 32 -37 63 -71 69 -75 22 -16 -5 -15 -85 2 -47 11 -99 19 -116 19 -39 1
-67 -28 -62 -66 4 -36 44 -56 163 -79 50 -9 137 -27 195 -39 58 -12 114 -19
125 -15 37 13 45 47 35 150 -5 52 -14 154 -20 225 -12 153 -16 174 -37 198
-24 25 -69 22 -88 -7 -14 -21 -15 -42 -7 -153 5 -70 9 -129 8 -130 -1 -1 -42
37 -91 85 -116 113 -179 164 -291 240 -87 58 -276 162 -295 162 -5 0 -28 9
-52 19 -88 40 -231 79 -392 106 -109 19 -382 27 -485 15z"/>
<path d="M2340 3829 c-307 -46 -496 -129 -721 -315 -208 -172 -381 -457 -428
-704 -27 -145 -31 -183 -31 -321 0 -279 77 -529 233 -758 72 -106 253 -284
359 -354 216 -142 396 -200 693 -223 229 -17 534 63 759 199 295 179 528 494
604 817 6 25 17 70 24 100 7 33 12 120 12 215 0 345 -97 610 -323 889 -56 69
-174 174 -263 235 -75 50 -226 126 -310 154 -185 64 -442 91 -608 66z m90
-233 c0 -79 3 -97 21 -120 25 -32 64 -34 96 -4 21 20 23 30 23 120 l0 98 48 0
c123 0 266 -41 437 -125 280 -138 488 -377 590 -678 30 -90 55 -215 55 -274
l0 -43 -90 0 c-104 0 -137 -11 -145 -51 -14 -63 32 -89 155 -89 61 0 79 -3 84
-16 7 -17 -36 -236 -58 -299 -31 -86 -87 -207 -122 -262 -119 -189 -328 -366
-534 -454 -125 -53 -327 -104 -385 -97 l-30 3 -5 112 c-6 123 -19 153 -70 153
-56 0 -65 -17 -70 -147 l-5 -118 -30 -4 c-77 -9 -303 52 -440 119 -211 101
-423 317 -539 547 -64 128 -116 313 -116 416 l0 47 84 0 c47 0 96 4 110 10 53
20 60 96 11 118 -14 7 -66 12 -115 12 l-90 0 0 48 c0 74 45 253 90 359 23 53
67 135 98 182 66 101 230 269 321 330 175 119 390 193 579 200 l42 1 0 -94z"/>
<path d="M3120 3264 c-36 -19 -117 -62 -180 -96 -63 -33 -128 -69 -145 -78
-45 -26 -114 -64 -280 -153 -152 -82 -247 -134 -277 -152 -26 -16 -508 -984
-508 -1020 0 -69 55 -73 166 -12 44 24 142 77 219 117 77 41 162 86 188 102
26 15 49 28 51 28 2 0 33 17 67 38 35 21 123 69 194 106 72 37 140 77 153 89
29 27 502 981 502 1012 0 27 -34 55 -65 55 -11 0 -49 -16 -85 -36z m-247 -536
c-91 -183 -167 -335 -169 -337 -7 -8 -15 6 -15 25 1 11 3 46 7 79 5 56 3 63
-28 109 -51 76 -76 90 -170 96 -45 3 -83 10 -85 15 -2 6 32 28 74 49 43 21
157 82 253 136 96 54 200 112 230 129 30 17 58 31 61 31 4 0 -68 -150 -158
-332z m-570 -196 c-7 -97 12 -141 83 -192 43 -30 57 -35 119 -38 38 -2 76 -5
84 -8 8 -3 -28 -26 -80 -52 -52 -27 -125 -66 -164 -88 -38 -23 -119 -67 -180
-99 -60 -31 -121 -65 -135 -75 -78 -54 -74 -42 96 300 90 181 169 330 174 330
6 0 7 -31 3 -78z m241 23 c39 -39 26 -96 -26 -114 -31 -11 -64 -1 -80 23 -13
19 -9 60 8 84 18 26 74 30 98 7z"/>
</g>
</svg>
